<?xml version="1.0" encoding="utf-8"?>
<svg xmlns="http://www.w3.org/2000/svg" version="1.2" baseProfile="tiny-ps" width="256.0" height="256.0" viewBox="0 0 256.0 256.0">
  <title>Vasp License Logo</title>
  <rect x="0" y="0" width="256.0" height="256.0" fill="#464646"/>
  <g transform="translate(0.0,73.96622889305817) scale(0.08213133208255159)">
    <rect fill="#464646" width="3116.9590643274855" height="1315.7894736842104"/>
    
			
    <g transform="scale(5.847953216374269) translate(10, 10)">
      
				
      <defs id="SvgjsDefs25369">
        <linearGradient id="SvgjsLinearGradient25380" x1="0" y1="1" x2="0.9999999999999998" y2="0">
          <stop id="SvgjsStop25381" stop-color="#f5ec9b" offset="0"/>
          <stop id="SvgjsStop25382" stop-color="#905e26" offset="0.21"/>
          <stop id="SvgjsStop25383" stop-color="#f5ec9b" offset="0.28"/>
          <stop id="SvgjsStop25384" stop-color="#905e26" offset="0.7"/>
          <stop id="SvgjsStop25385" stop-color="#f5ec9b" offset="0.79"/>
          <stop id="SvgjsStop25386" stop-color="#905e26" offset="1"/>
        </linearGradient>
        <linearGradient id="SvgjsLinearGradient25387">
          <stop id="SvgjsStop25388" stop-color="#b98947" offset="0"/>
          <stop id="SvgjsStop25389" stop-color="#faf0a1" offset="1"/>
        </linearGradient>
      </defs>
      <g id="SvgjsG25370" featureKey="rootContainer" transform="matrix(1,0,0,1,0,0)" fill="url(#SvgjsLinearGradient25380)">
        <path fill-rule="evenodd" d=" M0,0 H513 V205 H0,0 z M2,2 H511 V203 H2,2 z M6,6 H507 V199 H6 z M8,8 H505 V197 H6,8 z "/>
      </g>
      <g id="SvgjsG25371" featureKey="q0AoiL-0" transform="matrix(0.7753378664604851,0,0,0.7753378664604851,60.63659919463666,138.3353814450813)" fill="#dbc078">
        <path d="M9.4824 6.367000000000001 l-3.3301 0 l0 5.2441 l1.709 0 l2.0508 -2.4023 l0.55664 0 l0 6.1914 l-0.55664 0 l-2.0703 -2.4219 l-1.6895 0 l0 4.4824 l2.3047 1.9824 l0 0.55664 l-7.9883 0 l0 -0.55664 l2.3145 -1.9824 l0 -9.9219 l-2.3145 -1.9824 l0 -0.55664 l12.773 0 l0.71289 4.5117 l-0.72266 0 z M29.41061328125 5.557 l-2.3047 1.9824 l0 9.9219 l2.3047 1.9824 l0 0.55664 l-7.9883 0 l0 -0.55664 l2.3145 -1.9824 l0 -9.9219 l-2.3145 -1.9824 l0 -0.55664 l7.9883 0 l0 0.55664 z M54.2018828125 5 l-0.048828 0.54688 l-2.4609 2.1289 l0 12.598 l-1.2402 0 l-9.7168 -10.547 l0 7.5977 l2.4609 2.1289 l0.048828 0.54688 l-6.377 0 l0 -0.53711 l2.5 -2.1387 l0 -9.082 l-2.5 -2.7148 l0 -0.52734 l4.4434 0 l9.0137 9.7363 l0 -7.0605 l-2.4707 -2.1289 l-0.048828 -0.54688 l6.3965 0 z M72.31424609375 6.367000000000001 l-1.3086 0 l0 11.094 l2.3047 1.9824 l0 0.55664 l-7.9883 0 l0 -0.55664 l2.3145 -1.9824 l0 -11.094 l-1.2402 0 l-4.2383 3.1445 l-0.72266 0 l0.77148 -4.5117 l14.229 0 l0.77148 4.5117 l-0.72266 0 z M93.6777125 18.6328 l3.75 -3.6328 l0.72266 0 l-0.71289 5 l-12.773 0 l0 -0.55664 l2.3145 -1.9824 l0 -9.9219 l-2.3145 -1.9824 l0 -0.55664 l12.773 0 l0.71289 4.5117 l-0.72266 0 l-3.75 -3.1445 l-3.3301 0 l0 5.2441 l1.709 0 l2.0508 -2.4023 l0.55664 0 l0 6.1914 l-0.55664 0 l-2.0703 -2.4219 l-1.6895 0 l0 5.6543 l3.3301 0 z M115.05130078125 20.27344 c-5.7617 0 -8.6426 -4.0039 -8.6426 -7.7734 s2.8809 -7.7734 8.6426 -7.7734 c1.9922 0 3.9258 0.45898 5.2344 0.99609 l0.57617 3.7891 l-0.72266 0 l-4.4531 -3.7891 c-3.418 0.53711 -5.3613 3.0371 -5.3613 6.7773 s1.9434 6.2402 5.3613 6.7773 l4.4531 -4.2773 l0.72266 0 l-0.57617 4.2773 c-1.3086 0.53711 -3.2422 0.99609 -5.2344 0.99609 z M128.7978515625 20 l0 -0.55664 l2.3047 -1.9824 l0 -9.9219 l-2.3047 -1.9824 l0 -0.55664 l7.9785 0 l0 0.55664 l-2.3047 1.9824 l0 4.0723 l5.791 0 l0 -4.0723 l-2.3047 -1.9824 l0 -0.55664 l7.9785 0 l0 0.55664 l-2.3047 1.9824 l0 9.9219 l2.3047 1.9824 l0 0.55664 l-7.9785 0 l0 -0.55664 l2.3047 -1.9824 l0 -4.4824 l-5.791 0 l0 4.4824 l2.3047 1.9824 l0 0.55664 l-7.9785 0 z M181.11553125 20.24414 l-5.1465 0 l-1.1523 -1.0742 c-1.1914 0.76172 -2.627 1.1719 -4.3945 1.1719 c-3.6523 0 -5.2734 -1.7578 -5.2734 -3.7598 c0 -1.5137 0.9375 -2.9688 2.9004 -3.8086 c-0.76172 -0.87891 -1.4551 -2.041 -1.4551 -3.5254 c0 -2.4316 1.8457 -4.0332 4.8926 -4.2578 c3.0371 0.20508 4.502 1.543 4.502 3.4277 c0 1.8945 -1.4746 3.0859 -4.1016 3.75 c0.25391 0.23438 0.52734 0.47852 0.81055 0.72266 l3.5059 3.0664 c0.3125 -0.50781 0.56641 -1.0352 0.75195 -1.5527 l-2.2168 -1.8945 l0 -0.27344 l5.8691 0 l0 0.27344 l-2.1875 1.8848 c-0.36133 0.88867 -0.77148 1.6992 -1.25 2.4023 z M171.48633125 6.122999999999999 c-1.2598 0.17578 -1.9531 0.80078 -1.9531 2.0801 c0 1.1523 0.53711 2.0898 1.4551 3.0762 c1.6211 -0.52734 2.2559 -1.8945 2.2559 -3.1055 c0 -0.87891 -0.3418 -1.8555 -1.7578 -2.0508 z M171.57423125 18.9258 c0.85938 0 1.6309 -0.23438 2.3145 -0.625 l-4.6289 -4.3066 c-0.078125 -0.068359 -0.15625 -0.14648 -0.23438 -0.22461 c-0.72266 0.52734 -1.0059 1.2695 -1.0059 2.0313 c0 1.6895 1.4258 3.125 3.5547 3.125 z M208.9892890625 20.27344 c-5.7617 0 -8.6426 -4.0039 -8.6426 -7.7734 s2.8809 -7.7734 8.6426 -7.7734 c1.9922 0 3.9258 0.45898 5.2344 0.99609 l0.57617 3.7891 l-0.72266 0 l-4.4531 -3.7891 c-3.418 0.53711 -5.3613 3.0371 -5.3613 6.7773 s1.9434 6.2402 5.3613 6.7773 l4.4531 -4.2773 l0.72266 0 l-0.57617 4.2773 c-1.3086 0.53711 -3.2422 0.99609 -5.2344 0.99609 z M235.95808984375 17.4219 l2.3438 2.0215 l0 0.55664 l-4.7949 0 l-3.4961 -6.8262 c-0.23438 0.0097656 -0.47852 0.0097656 -0.73242 0.0097656 l-0.85938 0 l0 4.2773 l2.3047 1.9824 l0 0.55664 l-7.9883 0 l0 -0.55664 l2.3145 -1.9824 l0 -9.9219 l-2.3145 -1.9824 l0 -0.55664 l6.8848 0 c1.7188 0 6.5918 0 6.5918 4.0332 c0 2.002 -1.2012 3.291 -3.6719 3.8477 l1.4355 0.625 z M229.14208984375 11.8164 c1.6992 0 3.4277 -0.58594 3.4277 -2.7637 c0 -1.8457 -1.2305 -2.666 -4.1504 -2.6855 l0 5.4492 l0.72266 0 z M257.234109375 7.92 l-2.9102 4.6094 l0 4.9316 l2.3047 1.9824 l0 0.55664 l-7.9883 0 l0 -0.55664 l2.3145 -1.9824 l0 -4.668 l-2.998 -4.9414 l-2.6855 -2.2949 l0 -0.55664 l7.6953 0 l0 0.55664 l-1.7676 1.5137 l2.4902 3.9063 l2.3828 -3.7598 l-1.9238 -1.6699 l-0.048828 -0.54688 l5.918 0 l-0.048828 0.54688 z M273.75437578125 13.1836 l-0.85938 0 l0 4.2773 l2.3047 1.9824 l0 0.55664 l-7.9883 0 l0 -0.55664 l2.3145 -1.9824 l0 -9.9219 l-2.3145 -1.9824 l0 -0.55664 l6.8848 0 c1.7188 0 6.5918 0 6.5918 4.0332 c0 2.7344 -2.2461 4.1504 -6.9336 4.1504 z M277.04567578125 9.053 c0 -1.8457 -1.2305 -2.666 -4.1504 -2.6855 l0 5.4492 l0.72266 0 c1.6992 0 3.4277 -0.58594 3.4277 -2.7637 z M299.0539921875 6.367000000000001 l-1.3086 0 l0 11.094 l2.3047 1.9824 l0 0.55664 l-7.9883 0 l0 -0.55664 l2.3145 -1.9824 l0 -11.094 l-1.2402 0 l-4.2383 3.1445 l-0.72266 0 l0.77148 -4.5117 l14.229 0 l0.77148 4.5117 l-0.72266 0 z M319.66555859375 20.23438 c-5.0488 -0.24414 -7.9395 -3.0664 -7.9395 -7.7539 s2.8906 -7.5098 7.9395 -7.7539 c5.0488 0.22461 7.9395 3.0664 7.9395 7.7539 s-2.8906 7.5098 -7.9395 7.7539 z M319.66555859375 19.10156 c2.4219 -0.35156 4.0234 -2.9785 4.0234 -6.6211 s-1.6016 -6.2695 -4.0234 -6.6211 c-2.4219 0.35156 -4.0234 2.9785 -4.0234 6.6211 s1.6016 6.2695 4.0234 6.6211 z M352.79345703125 20.27344 c-1.1816 0 -2.7637 -0.21484 -4.9805 -0.66406 l-0.75195 -4.8438 l0.72266 0 l4.7949 4.4336 c1.3379 -0.17578 2.8027 -0.70313 2.8027 -1.9434 c0 -1.3574 -1.4453 -2.0801 -3.1738 -2.9004 c-2.1191 -1.0059 -4.5801 -2.207 -4.5801 -5.0684 c0 -2.5098 2.2656 -4.5605 5.0586 -4.5605 c1.5137 0 2.959 0.19531 4.6094 1.0059 l0.68359 3.7793 l-0.73242 0 l-4.4434 -3.7891 c-1.5234 0.39063 -2.373 1.2012 -2.373 2.3145 c0 1.1523 1.4453 1.8848 3.2031 2.7441 c2.2363 1.084 4.8828 2.4121 4.8828 5.1758 c0 2.5098 -2.3926 4.3164 -5.7227 4.3164 z M375.2314234375 18.6328 l3.75 -3.6328 l0.72266 0 l-0.71289 5 l-12.773 0 l0 -0.55664 l2.3145 -1.9824 l0 -9.9219 l-2.3145 -1.9824 l0 -0.55664 l12.773 0 l0.71289 4.5117 l-0.72266 0 l-3.75 -3.1445 l-3.3301 0 l0 5.2441 l1.709 0 l2.0508 -2.4023 l0.55664 0 l0 6.1914 l-0.55664 0 l-2.0703 -2.4219 l-1.6895 0 l0 5.6543 l3.3301 0 z M400.94051171875 17.4219 l2.3438 2.0215 l0 0.55664 l-4.7949 0 l-3.4961 -6.8262 c-0.23438 0.0097656 -0.47852 0.0097656 -0.73242 0.0097656 l-0.85938 0 l0 4.2773 l2.3047 1.9824 l0 0.55664 l-7.9883 0 l0 -0.55664 l2.3145 -1.9824 l0 -9.9219 l-2.3145 -1.9824 l0 -0.55664 l6.8848 0 c1.7188 0 6.5918 0 6.5918 4.0332 c0 2.002 -1.2012 3.291 -3.6719 3.8477 l1.4355 0.625 z M394.12451171875 11.8164 c1.6992 0 3.4277 -0.58594 3.4277 -2.7637 c0 -1.8457 -1.2305 -2.666 -4.1504 -2.6855 l0 5.4492 l0.72266 0 z M427.88053125 5 l0 0.55664 l-2.373 2.002 l-5.9082 12.715 l-0.88867 0 l-5.8203 -12.461 l-2.6367 -2.2559 l0 -0.55664 l7.9883 0 l0 0.55664 l-1.9434 1.6602 l3.9746 8.418 l3.6621 -8.0273 l-2.3828 -2.041 l-0.039063 -0.56641 l6.3672 0 z M443.07272265625 5.557 l-2.3047 1.9824 l0 9.9219 l2.3047 1.9824 l0 0.55664 l-7.9883 0 l0 -0.55664 l2.3145 -1.9824 l0 -9.9219 l-2.3145 -1.9824 l0 -0.55664 l7.9883 0 l0 0.55664 z M459.3974921875 20.27344 c-5.7617 0 -8.6426 -4.0039 -8.6426 -7.7734 s2.8809 -7.7734 8.6426 -7.7734 c1.9922 0 3.9258 0.45898 5.2344 0.99609 l0.57617 3.7891 l-0.72266 0 l-4.4531 -3.7891 c-3.418 0.53711 -5.3613 3.0371 -5.3613 6.7773 s1.9434 6.2402 5.3613 6.7773 l4.4531 -4.2773 l0.72266 0 l-0.57617 4.2773 c-1.3086 0.53711 -3.2422 0.99609 -5.2344 0.99609 z M482.15769296875 18.6328 l3.75 -3.6328 l0.72266 0 l-0.71289 5 l-12.773 0 l0 -0.55664 l2.3145 -1.9824 l0 -9.9219 l-2.3145 -1.9824 l0 -0.55664 l12.773 0 l0.71289 4.5117 l-0.72266 0 l-3.75 -3.1445 l-3.3301 0 l0 5.2441 l1.709 0 l2.0508 -2.4023 l0.55664 0 l0 6.1914 l-0.55664 0 l-2.0703 -2.4219 l-1.6895 0 l0 5.6543 l3.3301 0 z M500.73828125 20.27344 c-1.1816 0 -2.7637 -0.21484 -4.9805 -0.66406 l-0.75195 -4.8438 l0.72266 0 l4.7949 4.4336 c1.3379 -0.17578 2.8027 -0.70313 2.8027 -1.9434 c0 -1.3574 -1.4453 -2.0801 -3.1738 -2.9004 c-2.1191 -1.0059 -4.5801 -2.207 -4.5801 -5.0684 c0 -2.5098 2.2656 -4.5605 5.0586 -4.5605 c1.5137 0 2.959 0.19531 4.6094 1.0059 l0.68359 3.7793 l-0.73242 0 l-4.4434 -3.7891 c-1.5234 0.39063 -2.373 1.2012 -2.373 2.3145 c0 1.1523 1.4453 1.8848 3.2031 2.7441 c2.2363 1.084 4.8828 2.4121 4.8828 5.1758 c0 2.5098 -2.3926 4.3164 -5.7227 4.3164 z"/>
      </g>
      <g id="SvgjsG25372" featureKey="nameLeftFeature-0" transform="matrix(2.2030914856247583,0,0,2.2030914856247583,48.69482777358357,50.48644494190062)" fill="#dbc078">
        <path d="M15.56 6 c0.22 0 0.3 0.6 0.04 0.64 c-0.82 0.12 -1.32 0.44 -2.06 2.16 l-3.38 7.8 c-0.72 1.68 -1.02 2.6 -1.02 3.4 c0 0.12 -1.4 0.44 -1.46 0.3 l-4.86 -11.48 c-0.72 -1.76 -1.3 -2.06 -2.06 -2.18 c-0.26 -0.04 -0.2 -0.64 0.06 -0.64 l4.96 0 c0.26 0 0.32 0.6 0.06 0.64 c-0.74 0.16 -1.48 0.42 -0.76 2.16 l3.58 8.66 l3.62 -8.66 c0.74 -1.76 -0.06 -1.96 -1 -2.16 c-0.26 -0.04 -0.2 -0.64 0.06 -0.64 l4.22 0 z M31.86 19.36 c0.28 0.04 0.2 0.64 -0.04 0.64 l-4.98 0 c-0.26 0 -0.3 -0.6 -0.06 -0.64 c0.76 -0.12 1.52 -0.42 0.78 -2.16 l-0.3 -0.7 c-0.18 -0.46 -0.62 -0.48 -1.26 -0.48 l-4.16 0 c-0.6 0 -1.04 0.02 -1.22 0.48 l-0.28 0.7 c-0.74 1.78 0.02 2.02 1.02 2.16 c0.24 0.04 0.2 0.64 -0.06 0.64 l-4.22 0 c-0.26 0 -0.32 -0.6 -0.06 -0.64 c0.84 -0.12 1.32 -0.44 2.06 -2.16 l3.38 -7.7 c0.78 -1.76 1.02 -2.64 1.02 -3.4 c0 -0.12 1.42 -0.44 1.48 -0.3 l4.88 11.38 c0.74 1.74 1.22 2.06 2.02 2.18 z M26 15 c0.3 0 0.64 -0.04 0.52 -0.3 l-2.56 -6.08 l-2.56 6.08 c-0.12 0.26 0.2 0.3 0.5 0.3 l4.1 0 z M37.6 20.32 c-1.66 0 -4.06 -0.76 -3.84 -1.6 l0.18 -0.7 c0.54 -1.94 1.14 0.98 4.44 0.98 c1.74 0 2.72 -0.84 2.72 -2.1 c0 -1.04 -0.76 -1.5 -2.04 -2.26 l-2.24 -1.36 c-2.04 -1.24 -2.84 -2.12 -2.84 -3.5 c0 -2.38 2.28 -4.1 4.82 -4.1 c1.54 0 3.42 0.64 3.22 1.32 l-0.24 0.74 c-0.56 1.8 -1.08 -0.76 -3.82 -0.76 c-1.54 0 -2.32 0.8 -2.32 1.88 c0 0.88 0.54 1.4 1.88 2.22 l2.34 1.4 c2.04 1.22 2.86 2.14 2.86 3.52 c0 2.44 -2.44 4.32 -5.12 4.32 z M56.1 10.24 c0 3.62 -3.34 5.04 -7.74 4.34 l0 3 c0 1.4 0.92 1.64 2.26 1.8 c0.14 0.02 0.04 0.62 -0.12 0.62 l-5.78 0 c-0.16 0 -0.28 -0.6 -0.12 -0.62 c0.98 -0.14 1.68 -0.5 1.68 -1.8 l0 -9.04 c0 -1.32 -0.7 -1.7 -1.68 -1.96 c-0.16 -0.04 -0.06 -0.64 0.12 -0.62 c0.8 0.1 1.68 0.12 2.28 0.12 c1.34 0 2.54 -0.12 3.58 -0.12 c2.98 0 5.52 1.12 5.52 4.28 z M50.16 6.92 c-1.4 0 -1.8 0.46 -1.8 1.62 l0 5.16 c3.54 0.48 5.5 -0.24 5.5 -3.02 c0 -2.6 -1.7 -3.76 -3.7 -3.76 z"/>
      </g>
      <g id="SvgjsG25373" featureKey="inlineSymbolFeature-0" transform="matrix(0.581144680676526,0,0,0.581144680676526,192,50)" fill="url(#SvgjsLinearGradient25387)">
        <path d="M99.518,43.136c-0.245-1.773-0.578-3.517-1.004-5.227c-1.222-4.899-3.161-9.517-5.711-13.728  c-1.104-1.824-2.331-3.564-3.651-5.227C79.983,7.418,65.847,0,50,0C34.154,0,20.016,7.418,10.849,18.955  c-1.321,1.662-2.547,3.403-3.65,5.227c-2.55,4.211-4.491,8.829-5.712,13.728c-0.426,1.709-0.759,3.454-1.003,5.227  C0.173,45.381,0,47.67,0,50s0.173,4.619,0.483,6.864c0.245,1.773,0.578,3.518,1.003,5.227c1.222,4.9,3.162,9.517,5.712,13.729  c1.104,1.824,2.33,3.564,3.65,5.227C20.016,92.582,34.154,100,50,100c15.846,0,29.984-7.418,39.152-18.955  c1.32-1.662,2.547-3.402,3.651-5.227c2.549-4.212,4.489-8.828,5.711-13.729c0.426-1.709,0.759-3.453,1.004-5.227  C99.827,54.618,100,52.329,100,50S99.827,45.381,99.518,43.136z M35.97,7.49c-2.588,3.048-4.86,6.931-6.727,11.465h-11.46  C22.773,13.778,28.993,9.799,35.97,7.49z M13.455,24.181h13.906c-1.308,4.198-2.298,8.811-2.918,13.728H6.898  C8.297,32.929,10.536,28.3,13.455,24.181z M5.227,50c0-2.333,0.181-4.625,0.526-6.864h18.183c-0.155,2.241-0.242,4.529-0.242,6.864  c0,2.335,0.087,4.623,0.242,6.864H5.753C5.407,54.625,5.227,52.334,5.227,50z M13.455,75.818c-2.918-4.119-5.158-8.748-6.557-13.729  h17.544c0.62,4.918,1.611,9.53,2.918,13.729H13.455z M17.784,81.045h11.46c1.866,4.534,4.139,8.416,6.727,11.465  C28.993,90.2,22.774,86.223,17.784,81.045z M47.387,94.399c-4.792-1.324-9.14-6.221-12.411-13.354h12.411  C47.387,86.966,47.387,91.604,47.387,94.399z M47.387,75.818H32.91c-1.404-4.134-2.487-8.769-3.168-13.729h17.646  C47.387,67.028,47.387,71.648,47.387,75.818z M47.387,50c0,2.332,0,4.623,0,6.864H29.181C29.01,54.62,28.919,52.327,28.919,50  c0-2.328,0.09-4.62,0.262-6.864h18.206C47.387,45.377,47.387,47.667,47.387,50z M47.387,37.909H29.741  c0.681-4.96,1.765-9.595,3.168-13.728h14.478C47.387,28.35,47.387,32.97,47.387,37.909z M47.387,18.955H34.976  C38.248,11.82,42.595,6.925,47.387,5.6C47.387,8.395,47.387,13.034,47.387,18.955z M86.545,24.181  c2.919,4.119,5.157,8.748,6.557,13.728H75.558c-0.621-4.917-1.611-9.53-2.919-13.728H86.545z M82.217,18.955h-11.46  c-1.866-4.534-4.14-8.417-6.727-11.464C71.007,9.799,77.227,13.778,82.217,18.955z M52.613,5.6c4.793,1.325,9.14,6.22,12.411,13.354  H52.613V5.6z M52.613,24.181H67.09c1.405,4.133,2.488,8.768,3.169,13.728H52.613V24.181z M52.613,43.136h18.206  c0.17,2.244,0.261,4.536,0.261,6.864c0,2.328-0.091,4.621-0.261,6.864H52.613V43.136z M52.613,62.09h17.646  c-0.681,4.96-1.764,9.595-3.169,13.729H52.613V62.09z M52.613,94.399V81.045h12.411C61.753,88.179,57.406,93.074,52.613,94.399z   M64.03,92.51c2.587-3.049,4.86-6.932,6.726-11.465h11.46C77.226,86.222,71.007,90.2,64.03,92.51z M86.545,75.818H72.638  c1.309-4.198,2.299-8.811,2.92-13.729h17.544C91.702,67.07,89.464,71.699,86.545,75.818z M94.247,56.863H76.063  c0.156-2.241,0.243-4.528,0.243-6.864c0-2.334-0.087-4.623-0.243-6.864h18.184c0.346,2.238,0.526,4.53,0.526,6.864  C94.773,52.334,94.593,54.625,94.247,56.863z"/>
      </g>
      <g id="SvgjsG25374" featureKey="nameRightFeature-0" transform="matrix(2.2053150773806793,0,0,2.2053150773806793,260.3078958099853,50.47381494534986)" fill="#dbc078">
        <path d="M4.6 20.04 c-0.2 0.02 -0.28 -0.6 -0.12 -0.64 c1.18 -0.3 2.08 -0.48 2.08 -1.96 l0 -9.02 c0 -1.4 -0.82 -1.68 -1.7 -1.8 c-0.16 -0.02 -0.04 -0.62 0.1 -0.62 l5.22 0 c0.16 0 0.26 0.6 0.12 0.62 c-0.86 0.1 -1.66 0.4 -1.66 1.8 l0 9.02 c0 1.16 0.52 1.54 2.24 1.54 c3.24 0 4.28 -1.3 4.78 -2.14 c0.16 -0.26 0.64 -0.2 0.64 0.18 c0 1.1 -0.84 3 -2.06 3.02 c-0.96 -0.06 -2.24 -0.12 -3.96 -0.12 c-1.84 0 -3.84 -0.06 -5.68 0.12 z M17.9 20 c-0.16 0 -0.28 -0.6 -0.12 -0.62 c0.98 -0.14 1.68 -0.5 1.68 -1.8 l0 -9.16 c0 -1.3 -0.7 -1.66 -1.68 -1.8 c-0.16 -0.02 -0.04 -0.62 0.12 -0.62 l5.18 0 c0.16 0 0.28 0.6 0.12 0.62 c-0.86 0.12 -1.66 0.4 -1.66 1.8 l0 9.16 c0 1.4 0.8 1.68 1.66 1.8 c0.16 0.02 0.04 0.62 -0.12 0.62 l-5.18 0 z M33.14 20.32 c-3.36 0 -7.96 -1.98 -7.96 -7.08 c0 -3.5 2.16 -7.56 7.68 -7.56 c2.28 0 4.3 0.7 4.06 1.4 l-0.24 0.74 c-0.62 1.9 -1.54 -0.68 -4.96 -0.68 c-2.92 0 -4.52 1.88 -4.52 4.92 c0 4.48 3.4 6.5 6.34 6.5 c0.34 0 1.98 -0.26 3.22 -1.04 c0.16 -0.1 0.54 0.3 0.42 0.48 c-0.86 1.24 -3.48 2.32 -4.04 2.32 z M38.900000000000006 20.04 c-0.2 0.02 -0.28 -0.6 -0.12 -0.64 c1.18 -0.3 2.08 -0.48 2.08 -1.96 l0 -8.96 c0 -1.34 -0.82 -1.68 -1.7 -1.9 c-0.16 -0.04 -0.08 -0.64 0.12 -0.62 c1.46 0.12 3.6 0.12 5.08 0.12 c1.82 0 3.18 -0.08 4.76 -0.12 c0.46 0 0.46 0.32 0.36 0.76 l-0.5 1.9 c-0.06 0.26 -0.54 0.26 -0.62 0 c-0.28 -0.94 -0.92 -1.6 -3.46 -1.6 c-1.5 0 -1.96 0.36 -1.96 1.46 l0 3.32 c0 0.52 0.26 0.62 0.66 0.62 l0.38 0 c1.78 0 3.12 -0.12 4 -0.96 c0.18 -0.18 0.6 -0.14 0.44 0.24 l-1.18 2.52 c-0.14 0.34 -0.42 0.3 -0.64 0 c-0.48 -0.62 -1.52 -0.86 -2.78 -0.86 l-0.22 0 c-0.4 0 -0.66 0.1 -0.66 0.62 l0 3.46 c0 1.16 0.52 1.54 2.24 1.54 c3.24 0 4.28 -1.3 4.78 -2.14 c0.16 -0.26 0.64 -0.2 0.64 0.18 c0 1.1 -0.84 3 -2.06 3.02 c-0.96 -0.06 -2.24 -0.12 -3.96 -0.12 c-1.84 0 -3.84 -0.06 -5.68 0.12 z M65.38000000000001 20.2 c-0.32 0 -0.48 -0.16 -0.7 -0.38 l-9.6 -10.36 l0 8.08 c0 1.34 0.78 1.58 1.82 1.84 c0.16 0.04 0.08 0.62 -0.12 0.62 l-4.48 0 c-0.18 0 -0.28 -0.56 -0.12 -0.62 c0.94 -0.26 1.66 -0.5 1.66 -1.84 l0 -7.92 c0 -1.28 -0.14 -2.12 -0.8 -2.86 c-0.12 -0.16 -0.3 -0.28 -0.3 -0.36 c0 -0.16 0.14 -0.4 0.36 -0.4 l1.4 0 c0.22 0 0.36 0.02 0.5 0.18 l9.42 10.28 l0 -8.02 c0 -1.4 -0.88 -1.58 -1.82 -1.82 c-0.16 -0.04 -0.08 -0.62 0.12 -0.62 l4.48 0 c0.18 0 0.28 0.58 0.12 0.62 c-0.9 0.24 -1.68 0.42 -1.68 1.82 l0 7.94 c0 1.26 0.04 2.7 0.24 3.42 c0.1 0.32 -0.26 0.4 -0.5 0.4 z M73.26 20.32 c-1.66 0 -4.06 -0.76 -3.84 -1.6 l0.18 -0.7 c0.54 -1.94 1.14 0.98 4.44 0.98 c1.74 0 2.72 -0.84 2.72 -2.1 c0 -1.04 -0.76 -1.5 -2.04 -2.26 l-2.24 -1.36 c-2.04 -1.24 -2.84 -2.12 -2.84 -3.5 c0 -2.38 2.28 -4.1 4.82 -4.1 c1.54 0 3.42 0.64 3.22 1.32 l-0.24 0.74 c-0.56 1.8 -1.08 -0.76 -3.82 -0.76 c-1.54 0 -2.32 0.8 -2.32 1.88 c0 0.88 0.54 1.4 1.88 2.22 l2.34 1.4 c2.04 1.22 2.86 2.14 2.86 3.52 c0 2.44 -2.44 4.32 -5.12 4.32 z M80.08 20.04 c-0.2 0.02 -0.28 -0.6 -0.12 -0.64 c1.18 -0.3 2.08 -0.48 2.08 -1.96 l0 -8.96 c0 -1.34 -0.82 -1.68 -1.7 -1.9 c-0.16 -0.04 -0.08 -0.64 0.12 -0.62 c1.46 0.12 3.6 0.12 5.08 0.12 c1.82 0 3.18 -0.08 4.76 -0.12 c0.46 0 0.46 0.32 0.36 0.76 l-0.5 1.9 c-0.06 0.26 -0.54 0.26 -0.62 0 c-0.28 -0.94 -0.92 -1.6 -3.46 -1.6 c-1.5 0 -1.96 0.36 -1.96 1.46 l0 3.32 c0 0.52 0.26 0.62 0.66 0.62 l0.38 0 c1.78 0 3.12 -0.12 4 -0.96 c0.18 -0.18 0.6 -0.14 0.44 0.24 l-1.18 2.52 c-0.14 0.34 -0.42 0.3 -0.64 0 c-0.48 -0.62 -1.52 -0.86 -2.78 -0.86 l-0.22 0 c-0.4 0 -0.66 0.1 -0.66 0.62 l0 3.46 c0 1.16 0.52 1.54 2.24 1.54 c3.24 0 4.28 -1.3 4.78 -2.14 c0.16 -0.26 0.64 -0.2 0.64 0.18 c0 1.1 -0.84 3 -2.06 3.02 c-0.96 -0.06 -2.24 -0.12 -3.96 -0.12 c-1.84 0 -3.84 -0.06 -5.68 0.12 z"/>
      </g>
      
			
    </g>
    
		
  </g>
</svg>
